<svg xmlns="http://www.w3.org/2000/svg" viewBox="0 0 800 600">
<rect width="800" height="600" rx="40" fill="#f7eadc"/>
<circle cx="620" cy="130" r="90" fill="#f6d7a7"/>
<circle cx="155" cy="450" r="110" fill="#fff8f1"/>
<ellipse cx="400" cy="470" rx="220" ry="38" fill="#d7c1ad"/>
<path d="M245 215h300v185c0 66-54 120-120 120h-60c-66 0-120-54-120-120z" fill="#fff"/>
<path d="M545 260h48c52 0 94 42 94 94s-42 94-94 94h-49" fill="none" stroke="#70472d" stroke-width="28"/>
<ellipse cx="395" cy="220" rx="150" ry="40" fill="#573522"/>
<ellipse cx="395" cy="220" rx="120" ry="27" fill="#8b5e3c"/>
<path d="M350 155c-25-35 18-45-2-80M420 155c-25-35 18-45-2-80M485 155c-25-35 18-45-2-80" fill="none" stroke="#8b5e3c" stroke-width="10" stroke-linecap="round"/>
<text x="394" y="355" text-anchor="middle" font-family="Arial, sans-serif" font-size="62" font-weight="700" fill="#70472d">B1T1</text>
<text x="394" y="395" text-anchor="middle" font-family="Arial, sans-serif" font-size="20" fill="#8b5e3c">TAKEAWAY COFFEE</text>
</svg>